<mxfile host="Electron" modified="2024-03-17T10:52:19.078Z" agent="Mozilla/5.0 (Macintosh; Intel Mac OS X 10_15_7) AppleWebKit/537.36 (KHTML, like Gecko) draw.io/24.0.4 Chrome/120.0.6099.109 Electron/28.1.0 Safari/537.36" etag="1lA1CLJ_rV3KCiNz2Hv6" version="24.0.4" type="device">
  <diagram name="Page-1" id="6ixUoF5Z3V_ZgRChF_Jt">
    <mxGraphModel dx="3330" dy="1640" grid="1" gridSize="10" guides="1" tooltips="1" connect="1" arrows="1" fold="1" page="0" pageScale="1" pageWidth="827" pageHeight="1169" math="0" shadow="0">
      <root>
        <mxCell id="0" />
        <mxCell id="1" parent="0" />
        <mxCell id="uET2ZLg72_JN9PS-6Mei-35" value="" style="rounded=0;whiteSpace=wrap;html=1;dashed=1;dashPattern=8 8;fillColor=none;strokeColor=#B3B3B3;" vertex="1" parent="1">
          <mxGeometry x="-350" y="420" width="1020" height="130" as="geometry" />
        </mxCell>
        <mxCell id="uET2ZLg72_JN9PS-6Mei-34" value="" style="rounded=0;whiteSpace=wrap;html=1;dashed=1;dashPattern=8 8;fillColor=none;strokeColor=#B3B3B3;" vertex="1" parent="1">
          <mxGeometry x="-350" y="320" width="1020" height="80" as="geometry" />
        </mxCell>
        <mxCell id="uET2ZLg72_JN9PS-6Mei-33" value="" style="rounded=0;whiteSpace=wrap;html=1;dashed=1;dashPattern=8 8;fillColor=none;strokeColor=#B3B3B3;" vertex="1" parent="1">
          <mxGeometry x="-350" y="185" width="1020" height="115" as="geometry" />
        </mxCell>
        <mxCell id="uET2ZLg72_JN9PS-6Mei-32" value="" style="rounded=0;whiteSpace=wrap;html=1;dashed=1;dashPattern=8 8;fillColor=none;strokeColor=#B3B3B3;" vertex="1" parent="1">
          <mxGeometry x="-350" y="60" width="1020" height="100" as="geometry" />
        </mxCell>
        <mxCell id="uET2ZLg72_JN9PS-6Mei-13" style="edgeStyle=none;curved=0;rounded=0;orthogonalLoop=1;jettySize=auto;html=1;exitX=0;exitY=0.5;exitDx=0;exitDy=0;entryX=0.5;entryY=0;entryDx=0;entryDy=0;fontSize=12;startSize=8;endSize=8;" edge="1" parent="1" source="uET2ZLg72_JN9PS-6Mei-2" target="uET2ZLg72_JN9PS-6Mei-9">
          <mxGeometry relative="1" as="geometry">
            <Array as="points">
              <mxPoint x="41" y="119" />
            </Array>
          </mxGeometry>
        </mxCell>
        <mxCell id="uET2ZLg72_JN9PS-6Mei-2" value="User API" style="rounded=1;whiteSpace=wrap;html=1;fillColor=#f5f5f5;fontColor=#333333;strokeColor=#666666;" vertex="1" parent="1">
          <mxGeometry x="136" y="89" width="120" height="60" as="geometry" />
        </mxCell>
        <mxCell id="uET2ZLg72_JN9PS-6Mei-6" value="" style="edgeStyle=none;curved=1;rounded=0;orthogonalLoop=1;jettySize=auto;html=1;fontSize=12;startSize=8;endSize=8;" edge="1" parent="1" source="uET2ZLg72_JN9PS-6Mei-4" target="uET2ZLg72_JN9PS-6Mei-2">
          <mxGeometry relative="1" as="geometry" />
        </mxCell>
        <mxCell id="uET2ZLg72_JN9PS-6Mei-4" value="" style="shape=actor;whiteSpace=wrap;html=1;" vertex="1" parent="1">
          <mxGeometry x="176" y="-29" width="40" height="60" as="geometry" />
        </mxCell>
        <mxCell id="uET2ZLg72_JN9PS-6Mei-5" value="API" style="text;html=1;align=center;verticalAlign=middle;resizable=0;points=[];autosize=1;strokeColor=#666666;fillColor=#f5f5f5;fontSize=16;fontColor=#333333;" vertex="1" parent="1">
          <mxGeometry x="-284" y="94.5" width="44" height="31" as="geometry" />
        </mxCell>
        <mxCell id="uET2ZLg72_JN9PS-6Mei-25" style="edgeStyle=none;curved=0;rounded=0;orthogonalLoop=1;jettySize=auto;html=1;exitX=0.5;exitY=1;exitDx=0;exitDy=0;entryX=0.5;entryY=0;entryDx=0;entryDy=0;fontSize=12;startSize=8;endSize=8;" edge="1" parent="1" source="uET2ZLg72_JN9PS-6Mei-7" target="uET2ZLg72_JN9PS-6Mei-23">
          <mxGeometry relative="1" as="geometry">
            <Array as="points">
              <mxPoint x="353" y="290" />
              <mxPoint x="276" y="290" />
            </Array>
          </mxGeometry>
        </mxCell>
        <mxCell id="uET2ZLg72_JN9PS-6Mei-7" value="Users" style="rounded=1;whiteSpace=wrap;html=1;fillColor=#d5e8d4;strokeColor=#82b366;" vertex="1" parent="1">
          <mxGeometry x="293" y="210" width="120" height="60" as="geometry" />
        </mxCell>
        <mxCell id="uET2ZLg72_JN9PS-6Mei-18" style="edgeStyle=none;curved=1;rounded=0;orthogonalLoop=1;jettySize=auto;html=1;exitX=0.5;exitY=1;exitDx=0;exitDy=0;entryX=0.5;entryY=0;entryDx=0;entryDy=0;fontSize=12;startSize=8;endSize=8;" edge="1" parent="1" source="uET2ZLg72_JN9PS-6Mei-9" target="uET2ZLg72_JN9PS-6Mei-10">
          <mxGeometry relative="1" as="geometry" />
        </mxCell>
        <mxCell id="uET2ZLg72_JN9PS-6Mei-9" value="Recommandations" style="rounded=1;whiteSpace=wrap;html=1;fillColor=#d5e8d4;strokeColor=#82b366;" vertex="1" parent="1">
          <mxGeometry x="-19" y="210" width="120" height="60" as="geometry" />
        </mxCell>
        <mxCell id="uET2ZLg72_JN9PS-6Mei-10" value="Recommendation Repository" style="rounded=1;whiteSpace=wrap;html=1;fillColor=#fff2cc;strokeColor=#d6b656;" vertex="1" parent="1">
          <mxGeometry x="-19" y="332" width="120" height="60" as="geometry" />
        </mxCell>
        <mxCell id="uET2ZLg72_JN9PS-6Mei-11" value="&lt;span style=&quot;color: rgb(51, 51, 51); font-size: 14px; text-wrap: wrap;&quot;&gt;Persistance&lt;/span&gt;&lt;div style=&quot;font-size: 14px;&quot;&gt;&lt;font style=&quot;font-size: 14px;&quot; color=&quot;#333333&quot;&gt;&lt;span style=&quot;text-wrap: wrap; font-size: 14px;&quot;&gt;Layer&lt;/span&gt;&lt;/font&gt;&lt;/div&gt;" style="text;html=1;align=center;verticalAlign=middle;resizable=0;points=[];autosize=1;strokeColor=#666666;fillColor=#f5f5f5;fontSize=14;fontColor=#333333;" vertex="1" parent="1">
          <mxGeometry x="-312" y="337.5" width="100" height="50" as="geometry" />
        </mxCell>
        <mxCell id="uET2ZLg72_JN9PS-6Mei-12" value="&lt;font style=&quot;font-size: 14px;&quot; color=&quot;#333333&quot;&gt;&lt;span style=&quot;text-wrap: wrap; font-size: 14px;&quot;&gt;Databases&lt;/span&gt;&lt;/font&gt;" style="text;html=1;align=center;verticalAlign=middle;resizable=0;points=[];autosize=1;strokeColor=#666666;fillColor=#f5f5f5;fontSize=14;fontColor=#333333;" vertex="1" parent="1">
          <mxGeometry x="-307" y="475" width="90" height="30" as="geometry" />
        </mxCell>
        <mxCell id="uET2ZLg72_JN9PS-6Mei-14" style="edgeStyle=none;curved=0;rounded=0;orthogonalLoop=1;jettySize=auto;html=1;exitX=1;exitY=0.5;exitDx=0;exitDy=0;entryX=0.5;entryY=0;entryDx=0;entryDy=0;fontSize=12;startSize=8;endSize=8;" edge="1" parent="1" source="uET2ZLg72_JN9PS-6Mei-2" target="uET2ZLg72_JN9PS-6Mei-7">
          <mxGeometry relative="1" as="geometry">
            <mxPoint x="146" y="129" as="sourcePoint" />
            <mxPoint x="51" y="220" as="targetPoint" />
            <Array as="points">
              <mxPoint x="353" y="120" />
            </Array>
          </mxGeometry>
        </mxCell>
        <mxCell id="uET2ZLg72_JN9PS-6Mei-16" value="&lt;span style=&quot;color: rgb(51, 51, 51);&quot;&gt;Elasticsearch&lt;/span&gt;" style="shape=cylinder3;whiteSpace=wrap;html=1;boundedLbl=1;backgroundOutline=1;size=15;fillColor=#dae8fc;strokeColor=#6c8ebf;" vertex="1" parent="1">
          <mxGeometry x="-4" y="450" width="90" height="80" as="geometry" />
        </mxCell>
        <mxCell id="uET2ZLg72_JN9PS-6Mei-17" style="edgeStyle=none;curved=1;rounded=0;orthogonalLoop=1;jettySize=auto;html=1;exitX=0.5;exitY=1;exitDx=0;exitDy=0;entryX=0.5;entryY=0;entryDx=0;entryDy=0;entryPerimeter=0;fontSize=12;startSize=8;endSize=8;" edge="1" parent="1" source="uET2ZLg72_JN9PS-6Mei-10" target="uET2ZLg72_JN9PS-6Mei-16">
          <mxGeometry relative="1" as="geometry" />
        </mxCell>
        <mxCell id="uET2ZLg72_JN9PS-6Mei-20" value="Client" style="text;html=1;align=center;verticalAlign=middle;resizable=0;points=[];autosize=1;strokeColor=none;fillColor=none;fontSize=12;" vertex="1" parent="1">
          <mxGeometry x="171" y="-70" width="50" height="30" as="geometry" />
        </mxCell>
        <mxCell id="uET2ZLg72_JN9PS-6Mei-21" value="&lt;span style=&quot;color: rgb(51, 51, 51);&quot;&gt;Redis&lt;/span&gt;" style="shape=cylinder3;whiteSpace=wrap;html=1;boundedLbl=1;backgroundOutline=1;size=15;fillColor=#dae8fc;strokeColor=#6c8ebf;" vertex="1" parent="1">
          <mxGeometry x="231" y="450" width="90" height="80" as="geometry" />
        </mxCell>
        <mxCell id="uET2ZLg72_JN9PS-6Mei-22" value="&lt;span style=&quot;color: rgb(51, 51, 51);&quot;&gt;PostgreSQL&lt;/span&gt;" style="shape=cylinder3;whiteSpace=wrap;html=1;boundedLbl=1;backgroundOutline=1;size=15;fillColor=#dae8fc;strokeColor=#6c8ebf;" vertex="1" parent="1">
          <mxGeometry x="385" y="450" width="90" height="80" as="geometry" />
        </mxCell>
        <mxCell id="uET2ZLg72_JN9PS-6Mei-23" value="Session Repository" style="rounded=1;whiteSpace=wrap;html=1;fillColor=#fff2cc;strokeColor=#d6b656;" vertex="1" parent="1">
          <mxGeometry x="216" y="332.5" width="120" height="60" as="geometry" />
        </mxCell>
        <mxCell id="uET2ZLg72_JN9PS-6Mei-24" value="User Repository" style="rounded=1;whiteSpace=wrap;html=1;fillColor=#fff2cc;strokeColor=#d6b656;" vertex="1" parent="1">
          <mxGeometry x="370" y="332" width="120" height="60" as="geometry" />
        </mxCell>
        <mxCell id="uET2ZLg72_JN9PS-6Mei-26" value="" style="endArrow=classic;html=1;rounded=0;fontSize=12;startSize=8;endSize=8;curved=0;entryX=0.5;entryY=0;entryDx=0;entryDy=0;" edge="1" parent="1" target="uET2ZLg72_JN9PS-6Mei-24">
          <mxGeometry width="50" height="50" relative="1" as="geometry">
            <mxPoint x="350" y="290" as="sourcePoint" />
            <mxPoint x="370" y="360" as="targetPoint" />
            <Array as="points">
              <mxPoint x="430" y="290" />
            </Array>
          </mxGeometry>
        </mxCell>
        <mxCell id="uET2ZLg72_JN9PS-6Mei-27" value="" style="endArrow=classic;html=1;rounded=0;fontSize=12;startSize=8;endSize=8;curved=1;exitX=0.5;exitY=1;exitDx=0;exitDy=0;entryX=0.5;entryY=0;entryDx=0;entryDy=0;entryPerimeter=0;" edge="1" parent="1" source="uET2ZLg72_JN9PS-6Mei-23" target="uET2ZLg72_JN9PS-6Mei-21">
          <mxGeometry width="50" height="50" relative="1" as="geometry">
            <mxPoint x="340" y="410" as="sourcePoint" />
            <mxPoint x="390" y="360" as="targetPoint" />
          </mxGeometry>
        </mxCell>
        <mxCell id="uET2ZLg72_JN9PS-6Mei-28" value="" style="endArrow=classic;html=1;rounded=0;fontSize=12;startSize=8;endSize=8;curved=1;entryX=0.5;entryY=0;entryDx=0;entryDy=0;entryPerimeter=0;exitX=0.5;exitY=1;exitDx=0;exitDy=0;" edge="1" parent="1" source="uET2ZLg72_JN9PS-6Mei-24" target="uET2ZLg72_JN9PS-6Mei-22">
          <mxGeometry width="50" height="50" relative="1" as="geometry">
            <mxPoint x="340" y="410" as="sourcePoint" />
            <mxPoint x="390" y="360" as="targetPoint" />
          </mxGeometry>
        </mxCell>
        <mxCell id="uET2ZLg72_JN9PS-6Mei-29" value="ctx.WithTimeout(500 ms)" style="text;html=1;align=center;verticalAlign=middle;resizable=0;points=[];autosize=1;strokeColor=none;fillColor=none;fontSize=13;" vertex="1" parent="1">
          <mxGeometry x="-69" y="89" width="170" height="30" as="geometry" />
        </mxCell>
        <mxCell id="uET2ZLg72_JN9PS-6Mei-30" value="ctx.WithValue(requestTimestamp)" style="text;html=1;align=center;verticalAlign=middle;resizable=0;points=[];autosize=1;strokeColor=none;fillColor=none;fontSize=13;" vertex="1" parent="1">
          <mxGeometry x="270" y="89" width="220" height="30" as="geometry" />
        </mxCell>
        <mxCell id="uET2ZLg72_JN9PS-6Mei-31" value="ctx.WithTimeout(300 ms)" style="text;html=1;align=center;verticalAlign=middle;resizable=0;points=[];autosize=1;strokeColor=none;fillColor=none;fontSize=13;" vertex="1" parent="1">
          <mxGeometry x="430" y="225" width="170" height="30" as="geometry" />
        </mxCell>
        <mxCell id="uET2ZLg72_JN9PS-6Mei-36" value="ctx.WithTimeout(200 ms)" style="text;html=1;align=center;verticalAlign=middle;resizable=0;points=[];autosize=1;strokeColor=none;fillColor=none;fontSize=13;" vertex="1" parent="1">
          <mxGeometry x="500" y="347.5" width="170" height="30" as="geometry" />
        </mxCell>
        <mxCell id="uET2ZLg72_JN9PS-6Mei-37" value="ctx.WithTimeout(350 ms)" style="text;html=1;align=center;verticalAlign=middle;resizable=0;points=[];autosize=1;strokeColor=none;fillColor=none;fontSize=13;" vertex="1" parent="1">
          <mxGeometry x="-189" y="347.5" width="170" height="30" as="geometry" />
        </mxCell>
        <mxCell id="uET2ZLg72_JN9PS-6Mei-38" value="&lt;span style=&quot;color: rgb(51, 51, 51); font-size: 14px; text-wrap: wrap;&quot;&gt;Business&lt;/span&gt;&lt;div&gt;&lt;div style=&quot;font-size: 14px;&quot;&gt;&lt;font style=&quot;font-size: 14px;&quot; color=&quot;#333333&quot;&gt;&lt;span style=&quot;text-wrap: wrap; font-size: 14px;&quot;&gt;Layer&lt;/span&gt;&lt;/font&gt;&lt;/div&gt;&lt;/div&gt;" style="text;html=1;align=center;verticalAlign=middle;resizable=0;points=[];autosize=1;strokeColor=#666666;fillColor=#f5f5f5;fontSize=14;fontColor=#333333;" vertex="1" parent="1">
          <mxGeometry x="-302" y="217.5" width="80" height="50" as="geometry" />
        </mxCell>
      </root>
    </mxGraphModel>
  </diagram>
</mxfile>
